<?xml version="1.0" encoding="UTF-8" standalone="no"?>
<svg
   height="800"
   width="1200"
   viewBox="-74.46 -31.4 645.32 188.4"
   version="1.1"
   id="svg5"
   sodipodi:docname="SlackTechnologies.svg"
   inkscape:export-filename="..\Logos\Slack\Slack_Logo.png"
   inkscape:export-xdpi="96"
   inkscape:export-ydpi="96"
   xmlns:inkscape="http://www.inkscape.org/namespaces/inkscape"
   xmlns:sodipodi="http://sodipodi.sourceforge.net/DTD/sodipodi-0.dtd"
   xmlns="http://www.w3.org/2000/svg"
   xmlns:svg="http://www.w3.org/2000/svg">
  <defs
     id="defs5" />
  <sodipodi:namedview
     id="namedview5"
     pagecolor="#ffffff"
     bordercolor="#000000"
     borderopacity="0.25"
     inkscape:showpageshadow="2"
     inkscape:pageopacity="0.0"
     inkscape:pagecheckerboard="0"
     inkscape:deskcolor="#d1d1d1"
     inkscape:export-bgcolor="#ffffffff" />
  <g
     fill="none"
     id="g5">
    <path
       fill="#000000"
       d="M 158.8,98.9 165,84.5 c 6.7,5 15.6,7.6 24.4,7.6 6.5,0 10.6,-2.5 10.6,-6.3 C 199.9,75.2 161.1,83.5 160.8,56.9 160.7,43.4 172.7,33 189.7,33 c 10.1,0 20.2,2.5 27.4,8.2 l -5.8,14.7 c -6.6,-4.2 -14.8,-7.2 -22.6,-7.2 -5.3,0 -8.8,2.5 -8.8,5.7 0.1,10.4 39.2,4.7 39.6,30.1 0,13.8 -11.7,23.5 -28.5,23.5 -12.3,0 -23.6,-2.9 -32.2,-9.1 M 396.7,79.3 c -3.1,5.4 -8.9,9.1 -15.6,9.1 -9.9,0 -17.9,-8 -17.9,-17.9 0,-9.9 8,-17.9 17.9,-17.9 6.7,0 12.5,3.7 15.6,9.1 l 17.1,-9.5 C 407.4,40.8 395.1,33 381.1,33 c -20.7,0 -37.5,16.8 -37.5,37.5 0,20.7 16.8,37.5 37.5,37.5 14.1,0 26.3,-7.7 32.7,-19.2 z M 228.1,1.9 h 21.4 v 104.7 h -21.4 z m 194.1,0 v 104.7 h 21.4 V 75.2 l 25.4,31.4 h 27.4 L 464.1,69.3 494,34.5 H 467.8 L 443.6,63.4 V 1.9 Z M 313.1,79.5 c -3.1,5.1 -9.5,8.9 -16.7,8.9 -9.9,0 -17.9,-8 -17.9,-17.9 0,-9.9 8,-17.9 17.9,-17.9 7.2,0 13.6,4 16.7,9.2 z m 0,-45 V 43 c -3.5,-5.9 -12.2,-10 -21.3,-10 -18.8,0 -33.6,16.6 -33.6,37.4 0,20.8 14.8,37.6 33.6,37.6 9.1,0 17.8,-4.1 21.3,-10 v 8.5 h 21.4 v -72 z"
       id="path1" />
    <path
       fill="#e01e5a"
       d="m 26.5,79.4 c 0,7.3 -5.9,13.2 -13.2,13.2 C 6,92.6 0.1,86.7 0.1,79.4 0.1,72.1 6,66.2 13.3,66.2 h 13.2 z m 6.6,0 c 0,-7.3 5.9,-13.2 13.2,-13.2 7.3,0 13.2,5.9 13.2,13.2 v 33 c 0,7.3 -5.9,13.2 -13.2,13.2 -7.3,0 -13.2,-5.9 -13.2,-13.2 z"
       id="path2" />
    <path
       fill="#36c5f0"
       d="M 46.3,26.4 C 39,26.4 33.1,20.5 33.1,13.2 33.1,5.9 39,0 46.3,0 53.6,0 59.5,5.9 59.5,13.2 v 13.2 z m 0,6.7 c 7.3,0 13.2,5.9 13.2,13.2 0,7.3 -5.9,13.2 -13.2,13.2 H 13.2 C 5.9,59.5 0,53.6 0,46.3 0,39 5.9,33.1 13.2,33.1 Z"
       id="path3" />
    <path
       fill="#2eb67d"
       d="m 99.2,46.3 c 0,-7.3 5.9,-13.2 13.2,-13.2 7.3,0 13.2,5.9 13.2,13.2 0,7.3 -5.9,13.2 -13.2,13.2 H 99.2 Z m -6.6,0 c 0,7.3 -5.9,13.2 -13.2,13.2 -7.3,0 -13.2,-5.9 -13.2,-13.2 V 13.2 C 66.2,5.9 72.1,0 79.4,0 86.7,0 92.6,5.9 92.6,13.2 Z"
       id="path4" />
    <path
       fill="#ecb22e"
       d="m 79.4,99.2 c 7.3,0 13.2,5.9 13.2,13.2 0,7.3 -5.9,13.2 -13.2,13.2 -7.3,0 -13.2,-5.9 -13.2,-13.2 V 99.2 Z m 0,-6.6 c -7.3,0 -13.2,-5.9 -13.2,-13.2 0,-7.3 5.9,-13.2 13.2,-13.2 h 33.1 c 7.3,0 13.2,5.9 13.2,13.2 0,7.3 -5.9,13.2 -13.2,13.2 z"
       id="path5" />
  </g>
</svg>
